PathFileType	4	(X/Y/Z)	C:\Documents and Settings\mvidt\Desktop\Forward_reach_ACS_12-5-11\acs_forward8.trc
DataRate	CameraRate	NumFrames	NumMarkers	Units	OrigDataRate	OrigDataStartFrame	OrigNumFrames
200.00	200.00	      17	10	mm	200.00	126	      1000
Frame#	Time	R.Clavicle			C7			R.Shoulder			R.Bicep			R.Elbow.Lateral			R.Forearm			R.Radius			Handle			R.Elbow.Medial			R.Ulna			
		X1	Y1	Z1	X2	Y2	Z2	X3	Y3	Z3	X4	Y4	Z4	X5	Y5	Z5	X6	Y6	Z6	X7	Y7	Z7	X8	Y8	Z8	X9	Y9	Z9	X10	Y10	Z10	

126	0.625	-383.78781	337.45178	306.64432				-430.83005	163.78600	313.19293	-373.19537	125.36506	120.65878	-409.26630	82.21744	16.30222	-311.58838	95.91888	72.21163	-169.57690	116.89641	116.13311	-53.12793	111.99157	173.53696	-409.42566	172.50716	-16.31846	-159.16702	62.42027	50.47908	
127	0.630	-383.78781	337.45178	306.64432				-430.83005	163.78600	313.19293	-373.36636	125.76803	120.32466	-409.23093	82.49657	16.75423	-312.00024	96.06207	72.03720	-169.58150	116.68289	116.41037	-52.99492	112.76569	173.54219	-409.39838	172.49982	-16.31688	-159.16702	62.42027	50.47908	
128	0.635	-383.78781	337.45178	306.64432				-430.68954	163.73660	313.63080	-373.56256	125.84332	120.75708	-408.87454	82.02358	16.58758	-312.00024	96.06207	72.03720	-169.24635	116.50291	116.34538	-52.99492	112.76569	173.54219	-409.31015	171.68039	-15.90403	-159.29317	62.61054	50.83398	
129	0.640	-383.78781	337.45178	306.64432				-430.68954	163.73660	313.63080	-373.56256	125.84332	120.75708	-409.23093	82.49657	16.75423	-311.07571	95.72049	72.82343	-168.72081	117.16026	116.29028	-52.70233	112.95465	173.70741	-409.76962	171.80338	-15.93054	-159.21233	62.40076	50.70121	
130	0.645	-383.78781	337.45178	306.64432				-430.68954	163.73660	313.63080	-373.56256	125.84332	120.75708	-409.23093	82.49657	16.75423	-311.07986	95.50803	72.89143	-168.47342	117.00762	116.47736	-52.38886	112.63087	173.88251	-409.76962	171.80338	-15.93054	-159.04524	62.47347	51.16915	
131	0.650	-383.78781	337.45178	306.64432				-430.68954	163.73660	313.63080	-373.97968	126.53672	120.97108	-409.23093	82.49657	16.75423	-311.07986	95.50803	72.89143	-168.08688	117.91151	116.20363	-52.53336	112.82891	173.84315	-409.76962	171.80338	-15.93054	-159.04524	62.47347	51.16915	
132	0.655	-383.78781	337.45178	306.64432				-430.68954	163.73660	313.63080	-373.15579	125.62393	120.85749	-409.23093	82.49657	16.75423	-311.02576	95.46559	73.50209	-167.75179	117.73111	116.13885	-52.46327	112.92376	174.02440	-409.76962	171.80338	-15.93054	-158.46123	63.54055	50.72346	
133	0.660	-383.78781	337.45178	306.64432				-430.68954	163.73660	313.63080	-373.01379	125.33852	120.75186	-408.24164	81.78727	17.15914	-311.57809	95.61080	72.82840	-167.80991	117.95150	116.25639	-52.35643	112.88933	173.93556	-408.52652	171.47070	-15.85725	-157.95851	63.51501	50.82941	
134	0.665	-383.78781	337.45178	306.64432				-430.68954	163.73660	313.63080	-372.48990	125.37505	121.04719	-408.51852	81.86151	16.86723	-311.13843	95.08817	73.18704	-167.80991	117.95150	116.25639	-52.12697	113.01079	174.07489	-408.86810	171.56209	-15.87789	-157.51891	63.12918	51.21486	
135	0.670	-383.78781	337.45178	306.64432				-430.68954	163.73660	313.63080	-372.41046	125.68844	121.30730	-408.51852	81.86151	16.86723	-310.97272	94.67776	73.03120	-167.72960	117.90363	116.26136	-51.53892	113.10561	174.23167	-408.86810	171.56209	-15.87789	-158.14134	63.91818	51.02514	
136	0.675	-383.78781	337.45178	306.64432				-430.68954	163.73660	313.63080	-372.41046	125.68844	121.30730	-407.98438	81.38524	16.95205	-310.43332	94.87462	73.50636	-167.43629	117.57080	116.60995	-51.39029	113.61881	174.56963	-408.19229	171.38129	-15.83668	-156.97844	62.86919	52.00359	
137	0.680	-383.78781	337.45178	306.64432				-430.68954	163.73660	313.63080	-372.41046	125.68844	121.30730	-407.98438	81.38524	16.95205	-310.43332	94.87462	73.50636	-167.34023	117.33176	116.84946	-51.16474	113.75675	174.80989	-408.19229	171.38129	-15.83668	-156.73347	63.27926	52.26820	
138	0.685	-383.78781	337.45178	306.64432				-430.68954	163.73660	313.63080	-372.62189	125.81482	121.81408	-407.41080	81.04644	17.29101	-310.15265	94.99530	73.76555	-167.34023	117.33176	116.84946	-51.16474	113.75675	174.80989	-407.47464	171.18936	-15.79129	-156.41028	62.93381	52.46105	
139	0.690	-383.78781	337.45178	306.64432				-430.68954	163.73660	313.63080	-372.27945	125.55650	121.90955	-406.87201	80.58740	17.40752	-310.04211	95.21898	73.98066	-166.73042	116.66815	117.06301	-50.86089	113.85778	175.22652	-406.79361	171.00728	-15.74666	-156.16437	62.61194	52.52103	
140	0.695	-383.78781	337.45178	306.64432				-430.68954	163.73660	313.63080	-372.27945	125.55650	121.90955	-406.54086	80.61599	17.92477	-309.89954	94.96521	73.91031	-166.95566	116.83217	117.87027	-51.21106	114.22424	175.49214	-406.38760	170.89876	-15.71933	-155.80063	62.21888	52.73192	
141	0.700	-383.78781	337.45178	306.64432				-430.68954	163.73660	313.63080	-372.02222	125.78326	122.22017	-406.06244	80.13738	17.92632	-308.44739	94.50343	73.75539	-166.59122	116.66379	118.19620	-50.19445	113.78432	176.47398	-405.77933	170.73622	-15.67738	-155.63728	62.15135	52.92249	
142	0.705	-383.78781	337.45178	306.64432				-430.68954	163.73660	313.63080	-372.02222	125.78326	122.22017	-404.96780	80.03097	18.42212	-309.25903	94.77035	74.20098	-166.46524	116.03218	117.88213	-49.98964	113.85400	176.82561	-404.57089	170.41344	-15.59044	-155.76521	62.40213	53.01328	
